static_00
version=1
nRows=27
nColumns=46
inDegrees=yes
endheader
time	ground_force1_vx	ground_force1_vy	ground_force1_vz	ground_force1_px	ground_force1_py	ground_force1_pz	ground_torque1_x	ground_torque1_y	ground_torque1_z	ground_force2_vx	ground_force2_vy	ground_force2_vz	ground_force2_px	ground_force2_py	ground_force2_pz	ground_torque2_x	ground_torque2_y	ground_torque2_z	ground_force3_vx	ground_force3_vy	ground_force3_vz	ground_force3_px	ground_force3_py	ground_force3_pz	ground_torque3_x	ground_torque3_y	ground_torque3_z	ground_force4_vx	ground_force4_vy	ground_force4_vz	ground_force4_px	ground_force4_py	ground_force4_pz	ground_torque4_x	ground_torque4_y	ground_torque4_z	ground_force5_vx	ground_force5_vy	ground_force5_vz	ground_force5_px	ground_force5_py	ground_force5_pz	ground_torque5_x	ground_torque5_y	ground_torque5_z
2.132000	2.325117	10.055558	0.679967	0.191299	0.000000	0.820397	-0.000001	0.058843	0.000000	-0.000000	-0.000000	0.000000	0.200000	0.000000	0.320000	0.000000	0.000000	-0.000000	-0.000000	-0.000000	0.000000	0.200000	0.000000	-0.300000	0.000000	0.000000	-0.000000	-0.329201	822.126709	-0.720070	0.243050	0.000000	-0.923003	0.000012	-0.286547	0.000003	-0.000000	-0.000000	0.000000	0.200000	0.000000	-1.500000	0.000000	0.000000	-0.000000	
2.133000	2.811241	11.948440	-0.126949	0.224915	0.000000	0.844196	-0.000000	-0.054892	0.000000	-0.000000	-0.000000	0.000000	0.200000	0.000000	0.320000	0.000000	0.000000	-0.000000	-0.000000	-0.000000	0.000000	0.200000	0.000000	-0.300000	0.000000	0.000000	-0.000000	0.482190	824.047058	-0.556477	0.242997	0.000000	-0.923086	0.000018	-0.117775	0.000004	-0.000000	-0.000000	0.000000	0.200000	0.000000	-1.500000	0.000000	0.000000	-0.000000	
2.134000	2.323400	9.107410	0.192421	0.237472	0.000000	0.772261	-0.000000	-0.149050	0.000000	-0.000000	-0.000000	0.000000	0.200000	0.000000	0.320000	0.000000	0.000000	-0.000000	-0.000000	-0.000000	0.000000	0.200000	0.000000	-0.300000	0.000000	0.000000	-0.000000	0.160105	819.566895	-0.560556	0.243020	0.000000	-0.923068	0.000042	-0.200334	0.000002	-0.000000	-0.000000	0.000000	0.200000	0.000000	-1.500000	0.000000	0.000000	-0.000000	
2.135000	2.808665	9.742689	1.320406	0.231784	0.000000	0.801631	-0.000000	-0.082586	0.000000	-0.000000	-0.000000	0.000000	0.200000	0.000000	0.320000	0.000000	0.000000	-0.000000	-0.000000	-0.000000	0.000000	0.200000	0.000000	-0.300000	0.000000	0.000000	-0.000000	-0.004027	820.525269	-1.526823	0.243103	0.000000	-0.923165	0.000024	-0.252462	0.000011	-0.000000	-0.000000	0.000000	0.200000	0.000000	-1.500000	0.000000	0.000000	-0.000000	
2.136000	2.486586	8.481400	1.000187	0.242902	0.000000	0.797100	-0.000001	-0.108860	0.000000	-0.000000	-0.000000	0.000000	0.200000	0.000000	0.320000	0.000000	0.000000	-0.000000	-0.000000	-0.000000	0.000000	0.200000	0.000000	-0.300000	0.000000	0.000000	-0.000000	0.807364	819.883057	-1.205753	0.243181	0.000000	-0.923456	0.000029	-0.225905	0.000008	-0.000000	-0.000000	0.000000	0.200000	0.000000	-1.500000	0.000000	0.000000	-0.000000	
2.137000	2.809523	10.370949	0.516037	0.210185	0.000000	0.804324	-0.000001	-0.084108	0.000000	-0.000000	-0.000000	0.000000	0.200000	0.000000	0.320000	0.000000	0.000000	-0.000000	-0.000000	-0.000000	0.000000	0.200000	0.000000	-0.300000	0.000000	0.000000	-0.000000	-0.000938	822.762817	-0.882645	0.243019	0.000000	-0.923721	0.000049	-0.150677	0.000012	-0.000000	-0.000000	0.000000	0.200000	0.000000	-1.500000	0.000000	0.000000	-0.000000	
2.138000	2.810382	9.428175	0.839652	0.222494	0.000000	0.814732	0.000000	-0.055986	0.000000	-0.000000	-0.000000	0.000000	0.200000	0.000000	0.320000	0.000000	0.000000	-0.000000	-0.000000	-0.000000	0.000000	0.200000	0.000000	-0.300000	0.000000	0.000000	-0.000000	0.802731	822.126404	-1.366287	0.243015	0.000000	-0.923330	0.000029	-0.393904	0.000010	-0.000000	-0.000000	0.000000	0.200000	0.000000	-1.500000	0.000000	0.000000	-0.000000	
2.139000	2.811241	11.001932	0.838803	0.216782	0.000000	0.835790	-0.000000	-0.095457	0.000000	-0.000000	-0.000000	0.000000	0.200000	0.000000	0.320000	0.000000	0.000000	-0.000000	-0.000000	-0.000000	0.000000	0.200000	0.000000	-0.300000	0.000000	0.000000	-0.000000	0.483734	821.809814	-1.525802	0.242768	0.000000	-0.923280	-0.000007	-0.128169	0.000004	-0.000000	-0.000000	0.000000	0.200000	0.000000	-1.500000	0.000000	0.000000	-0.000000	
2.140000	2.487445	10.057311	0.678269	0.205909	0.000000	0.820325	-0.000001	-0.077153	0.000000	-0.000000	-0.000000	0.000000	0.200000	0.000000	0.320000	0.000000	0.000000	-0.000000	-0.000000	-0.000000	0.000000	0.200000	0.000000	-0.300000	0.000000	0.000000	-0.000000	0.319604	822.767212	-0.723131	0.243065	0.000000	-0.922695	0.000015	-0.351839	0.000004	-0.000000	-0.000000	0.000000	0.200000	0.000000	-1.500000	0.000000	0.000000	-0.000000	
2.141000	3.135896	9.426423	0.515188	0.209280	0.000000	0.812558	-0.000000	-0.328645	0.000000	-0.000000	-0.000000	0.000000	0.200000	0.000000	0.320000	0.000000	0.000000	-0.000000	-0.000000	-0.000000	0.000000	0.200000	0.000000	-0.300000	0.000000	0.000000	-0.000000	-0.165069	825.012146	-0.559536	0.242562	0.000000	-0.923140	0.000057	-0.219505	0.000006	-0.000000	-0.000000	0.000000	0.200000	0.000000	-1.500000	0.000000	0.000000	-0.000000	
2.142000	2.970133	9.743539	0.516037	0.219710	0.000000	0.835836	-0.000000	0.083044	0.000000	-0.000000	-0.000000	0.000000	0.200000	0.000000	0.320000	0.000000	0.000000	-0.000000	-0.000000	-0.000000	0.000000	0.200000	0.000000	-0.300000	0.000000	0.000000	-0.000000	0.643232	822.767822	-1.043178	0.242878	0.000000	-0.923152	0.000050	-0.268402	0.000006	-0.000000	-0.000000	0.000000	0.200000	0.000000	-1.500000	0.000000	0.000000	-0.000000	
2.143000	2.648055	11.001543	0.194968	0.216333	0.000000	0.844205	-0.000001	0.048483	0.000000	-0.000000	-0.000000	0.000000	0.200000	0.000000	0.320000	0.000000	0.000000	-0.000000	-0.000000	-0.000000	0.000000	0.200000	0.000000	-0.300000	0.000000	0.000000	-0.000000	0.482190	821.808228	-1.365269	0.242968	0.000000	-0.923122	0.000011	-0.218639	0.000006	-0.000000	-0.000000	0.000000	0.200000	0.000000	-1.500000	0.000000	0.000000	-0.000000	
2.144000	2.973569	9.742785	0.193270	0.241319	0.000000	0.822645	-0.000000	-0.252053	0.000000	-0.000000	-0.000000	0.000000	0.200000	0.000000	0.320000	0.000000	0.000000	-0.000000	-0.000000	-0.000000	0.000000	0.200000	0.000000	-0.300000	0.000000	0.000000	-0.000000	-0.487154	819.566284	-0.880606	0.242967	0.000000	-0.923523	0.000027	-0.094898	0.000007	-0.000000	-0.000000	0.000000	0.200000	0.000000	-1.500000	0.000000	0.000000	-0.000000	
2.145000	2.810382	8.167153	0.193270	0.200501	0.000000	0.808796	-0.000000	-0.169974	0.000000	-0.000000	-0.000000	0.000000	0.200000	0.000000	0.320000	0.000000	0.000000	-0.000000	-0.000000	-0.000000	0.000000	0.200000	0.000000	-0.300000	0.000000	0.000000	-0.000000	0.321147	821.807861	-1.042160	0.242962	0.000000	-0.922959	0.000016	-0.157771	0.000001	-0.000000	-0.000000	0.000000	0.200000	0.000000	-1.500000	0.000000	0.000000	-0.000000	
2.146000	2.001321	10.058806	0.675722	0.203797	0.000000	0.832805	-0.000000	-0.085534	0.000000	-0.000000	-0.000000	0.000000	0.200000	0.000000	0.320000	0.000000	0.000000	-0.000000	-0.000000	-0.000000	0.000000	0.200000	0.000000	-0.300000	0.000000	0.000000	-0.000000	-0.327656	821.490967	-0.559536	0.242681	0.000000	-0.923455	0.000033	-0.248091	0.000012	-0.000000	-0.000000	0.000000	0.200000	0.000000	-1.500000	0.000000	0.000000	-0.000000	
2.147000	2.325117	7.852239	0.837955	0.239126	0.000000	0.833720	-0.000001	-0.084036	0.000000	-0.000000	-0.000000	0.000000	0.200000	0.000000	0.320000	0.000000	0.000000	-0.000000	-0.000000	-0.000000	0.000000	0.200000	0.000000	-0.300000	0.000000	0.000000	-0.000000	-0.002482	823.411011	-1.043178	0.242709	0.000000	-0.922992	0.000025	-0.189520	0.000006	-0.000000	-0.000000	0.000000	0.200000	0.000000	-1.500000	0.000000	0.000000	-0.000000	
2.148000	2.649773	9.115156	0.677420	0.211649	0.000000	0.844095	0.000000	-0.105327	0.000000	-0.000000	-0.000000	0.000000	0.200000	0.000000	0.320000	0.000000	0.000000	-0.000000	-0.000000	-0.000000	0.000000	0.200000	0.000000	-0.300000	0.000000	0.000000	-0.000000	0.804275	821.167358	-1.043179	0.243128	0.000000	-0.922829	0.000042	-0.303818	0.000017	-0.000000	-0.000000	0.000000	0.200000	0.000000	-1.500000	0.000000	0.000000	-0.000000	
2.149000	2.003039	10.375206	0.516037	0.213612	0.000000	0.816780	-0.000001	-0.193864	-0.000000	-0.000000	-0.000000	0.000000	0.200000	0.000000	0.320000	0.000000	0.000000	-0.000000	-0.000000	-0.000000	0.000000	0.200000	0.000000	-0.300000	0.000000	0.000000	-0.000000	-0.004027	820.846191	-1.203714	0.243137	0.000000	-0.923064	0.000019	-0.227574	0.000007	-0.000000	-0.000000	0.000000	0.200000	0.000000	-1.500000	0.000000	0.000000	-0.000000	
2.150000	1.837276	10.056787	0.194119	0.217251	0.000000	0.830707	-0.000001	0.143909	-0.000000	-0.000000	-0.000000	0.000000	0.200000	0.000000	0.320000	0.000000	0.000000	-0.000000	-0.000000	-0.000000	0.000000	0.200000	0.000000	-0.300000	0.000000	0.000000	-0.000000	0.644777	819.566895	-0.560556	0.242941	0.000000	-0.923506	0.000013	-0.243741	0.000002	-0.000000	-0.000000	0.000000	0.200000	0.000000	-1.500000	0.000000	0.000000	-0.000000	
2.151000	2.487445	8.165524	0.999338	0.215173	0.000000	0.798172	-0.000001	-0.181941	0.000000	-0.000000	-0.000000	0.000000	0.200000	0.000000	0.320000	0.000000	0.000000	-0.000000	-0.000000	-0.000000	0.000000	0.200000	0.000000	-0.300000	0.000000	0.000000	-0.000000	0.966863	822.124390	-0.400023	0.243230	0.000000	-0.922982	0.000029	-0.341264	0.000013	-0.000000	-0.000000	0.000000	0.200000	0.000000	-1.500000	0.000000	0.000000	-0.000000	
2.152000	2.808665	8.795888	-0.128647	0.232243	0.000000	0.816356	-0.000001	-0.014888	0.000000	-0.000000	-0.000000	0.000000	0.200000	0.000000	0.320000	0.000000	0.000000	-0.000000	-0.000000	-0.000000	0.000000	0.200000	0.000000	-0.300000	0.000000	0.000000	-0.000000	-0.002481	821.806152	-0.401041	0.242834	0.000000	-0.923363	0.000027	-0.293951	0.000006	-0.000000	-0.000000	0.000000	0.200000	0.000000	-1.500000	0.000000	0.000000	-0.000000	
2.153000	2.325117	7.220512	0.516886	0.202235	0.000000	0.786547	-0.000000	-0.123560	0.000000	-0.000000	-0.000000	0.000000	0.200000	0.000000	0.320000	0.000000	0.000000	-0.000000	-0.000000	-0.000000	0.000000	0.200000	0.000000	-0.300000	0.000000	0.000000	-0.000000	0.646321	821.811523	-0.882645	0.242779	0.000000	-0.923244	0.000050	-0.165316	0.000015	-0.000000	-0.000000	0.000000	0.200000	0.000000	-1.500000	0.000000	0.000000	-0.000000	
2.154000	2.324259	9.745168	0.837955	0.201821	0.000000	0.849814	-0.000000	0.049465	0.000000	-0.000000	-0.000000	0.000000	0.200000	0.000000	0.320000	0.000000	0.000000	-0.000000	-0.000000	-0.000000	0.000000	0.200000	0.000000	-0.300000	0.000000	0.000000	-0.000000	0.483734	820.846436	-0.237448	0.242966	0.000000	-0.923305	0.000024	-0.182745	0.000014	-0.000000	-0.000000	0.000000	0.200000	0.000000	-1.500000	0.000000	0.000000	-0.000000	
2.155000	2.485727	8.169525	0.997640	0.207366	0.000000	0.829236	-0.000000	-0.044443	0.000000	-0.000000	-0.000000	0.000000	0.200000	0.000000	0.320000	0.000000	0.000000	-0.000000	-0.000000	-0.000000	0.000000	0.200000	0.000000	-0.300000	0.000000	0.000000	-0.000000	0.966863	821.806885	-0.722111	0.242996	0.000000	-0.923232	0.000038	-0.327873	0.000003	-0.000000	-0.000000	0.000000	0.200000	0.000000	-1.500000	0.000000	0.000000	-0.000000	
2.156000	2.809523	8.800802	0.354654	0.208343	0.000000	0.818126	-0.000000	-0.062402	0.000000	-0.000000	-0.000000	0.000000	0.200000	0.000000	0.320000	0.000000	0.000000	-0.000000	-0.000000	-0.000000	0.000000	0.200000	0.000000	-0.300000	0.000000	0.000000	-0.000000	0.966863	821.807861	-0.720070	0.242894	0.000000	-0.923379	0.000047	-0.250875	0.000014	-0.000000	-0.000000	0.000000	0.200000	0.000000	-1.500000	0.000000	0.000000	-0.000000	
2.157000	3.135037	10.372931	0.838803	0.219074	0.000000	0.830598	-0.000000	-0.141097	0.000000	-0.000000	-0.000000	0.000000	0.200000	0.000000	0.320000	0.000000	0.000000	-0.000000	-0.000000	-0.000000	0.000000	0.200000	0.000000	-0.300000	0.000000	0.000000	-0.000000	-0.007115	822.445618	-0.561577	0.242891	0.000000	-0.923642	0.000045	-0.461847	0.000010	-0.000000	-0.000000	0.000000	0.200000	0.000000	-1.500000	0.000000	0.000000	-0.000000	
2.158000	2.971851	10.371045	1.158174	0.218409	0.000000	0.832047	-0.000000	-0.146084	0.000000	-0.000000	-0.000000	0.000000	0.200000	0.000000	0.320000	0.000000	0.000000	-0.000000	-0.000000	-0.000000	0.000000	0.200000	0.000000	-0.300000	0.000000	0.000000	-0.000000	0.643232	821.167725	-1.203714	0.242805	0.000000	-0.923571	0.000068	-0.242612	0.000007	-0.000000	-0.000000	0.000000	0.200000	0.000000	-1.500000	0.000000	0.000000	-0.000000	
